<svg viewBox="0 0 32 22" fill="none" xmlns="http://www.w3.org/2000/svg">
<path d="M6 3.375C5.65482 3.375 5.375 3.65482 5.375 4C5.375 4.34518 5.65482 4.625 6 4.625V3.375ZM15 4.625C15.3452 4.625 15.625 4.34518 15.625 4C15.625 3.65482 15.3452 3.375 15 3.375V4.625ZM21 4.625C21.3452 4.625 21.625 4.34518 21.625 4C21.625 3.65482 21.3452 3.375 21 3.375V4.625ZM9 4.625C9.34518 4.625 9.625 4.34518 9.625 4C9.625 3.65482 9.34518 3.375 9 3.375V4.625ZM12 3.375C11.6548 3.375 11.375 3.65482 11.375 4C11.375 4.34518 11.6548 4.625 12 4.625V3.375ZM18 3.375C17.6548 3.375 17.375 3.65482 17.375 4C17.375 4.34518 17.6548 4.625 18 4.625V3.375ZM28.4479 20.1797H3.55208V21.4297H28.4479V20.1797ZM12.875 16.8984H2.73958V18.1484H12.875V16.8984ZM14.9077 19.7891H17.1915V18.5391H14.9077V19.7891ZM29.2604 16.8984H19.125V18.1484H29.2604V16.8984ZM19.125 16.8984H12.875V18.1484H19.125V16.8984ZM2.73958 16.8984H1.72917V18.1484H2.73958V16.8984ZM3.36458 17.5234V2H2.11458V17.5234H3.36458ZM30.2708 16.8984H29.2604V18.1484H30.2708V16.8984ZM29.8854 17.5234V2H28.6354V17.5234H29.8854ZM28.2604 0.375H3.73958V1.625H28.2604V0.375ZM6 4.625H9V3.375H6V4.625ZM12 4.625H15V3.375H12V4.625ZM21 3.375H18V4.625H21V3.375ZM29.8854 2C29.8854 1.10254 29.1579 0.375 28.2604 0.375V1.625C28.4675 1.625 28.6354 1.79289 28.6354 2H29.8854ZM3.36458 2C3.36458 1.79289 3.53248 1.625 3.73958 1.625V0.375C2.84212 0.375 2.11458 1.10254 2.11458 2H3.36458ZM17.1915 19.7891C18.4565 19.7891 19.5357 18.8734 19.7417 17.6252L18.5083 17.4217C18.402 18.0662 17.8447 18.5391 17.1915 18.5391V19.7891ZM30.375 18.2526C30.375 19.3169 29.5122 20.1797 28.4479 20.1797V21.4297C30.2026 21.4297 31.625 20.0073 31.625 18.2526H30.375ZM31.625 18.2526C31.625 17.5047 31.0187 16.8984 30.2708 16.8984V18.1484C30.3284 18.1484 30.375 18.1951 30.375 18.2526H31.625ZM0.375 18.2526C0.375 20.0073 1.79743 21.4297 3.55208 21.4297V20.1797C2.48779 20.1797 1.625 19.3169 1.625 18.2526H0.375ZM12.2641 17.6554C12.5329 18.9004 13.634 19.7891 14.9077 19.7891V18.5391C14.2227 18.5391 13.6305 18.0611 13.4859 17.3915L12.2641 17.6554ZM1.625 18.2526C1.625 18.1951 1.67164 18.1484 1.72917 18.1484V16.8984C0.981282 16.8984 0.375 17.5047 0.375 18.2526H1.625Z" fill="url(#paint0_linear)"/>
<defs>
<linearGradient id="paint0_linear" x1="1" y1="6.54531" x2="31.08" y2="6.54532" gradientUnits="userSpaceOnUse">
<stop stop-color="#66B54D"/>
<stop offset="1" stop-color="#27ACC8"/>
</linearGradient>
</defs>
</svg>
