<?xml version="1.0" encoding="iso-8859-1"?>
<!-- Generator: Adobe Illustrator 19.0.0, SVG Export Plug-In . SVG Version: 6.00 Build 0)  -->
<svg version="1.1" id="Layer_1" xmlns="http://www.w3.org/2000/svg" xmlns:xlink="http://www.w3.org/1999/xlink" x="0px" y="0px"
	 viewBox="0 0 512 512" style="enable-background:new 0 0 512 512;" xml:space="preserve">
<rect x="83.592" y="10.449" style="fill:#EB4E49;" width="344.816" height="491.102"/>
<g>
	<rect x="83.592" y="459.745" style="fill:#EFEFEF;" width="344.816" height="41.806"/>
	<rect x="83.592" y="171.342" style="fill:#EFEFEF;" width="344.816" height="41.806"/>
	<rect x="174.498" y="254.945" style="fill:#EFEFEF;" width="163.004" height="163.004"/>
</g>
<path style="fill:#FAC51C;" d="M216.294,336.447L216.294,336.447c0-21.929,17.777-39.706,39.706-39.706l0,0
	c21.929,0,39.706,17.777,39.706,39.706l0,0c0,21.929-17.777,39.706-39.706,39.706l0,0
	C234.071,376.153,216.294,358.376,216.294,336.447z"/>
<rect x="132.702" y="254.945" style="fill:#EFEFEF;" width="41.796" height="41.796"/>
<g>
	<rect x="428.408" y="129.546" style="fill:#FAC51C;" width="41.796" height="41.796"/>
	<rect x="41.796" y="129.546" style="fill:#FAC51C;" width="41.796" height="41.796"/>
</g>
<g>
	<rect x="132.702" y="376.153" style="fill:#EFEFEF;" width="41.796" height="41.796"/>
	<rect x="337.502" y="315.549" style="fill:#EFEFEF;" width="41.796" height="41.796"/>
</g>
<g>
	<path style="fill:#231F20;" d="M136.527,139.995c5.771,0,10.449-4.678,10.449-10.449V99.853h25.258
		c5.771,0,10.449-4.678,10.449-10.449s-4.678-10.449-10.449-10.449h-25.258V62.694h25.258c5.771,0,10.449-4.678,10.449-10.449
		s-4.678-10.449-10.449-10.449h-35.707c-5.771,0-10.449,4.678-10.449,10.449v77.302
		C126.078,135.317,130.756,139.995,136.527,139.995z"/>
	<path style="fill:#231F20;" d="M214.03,139.995c5.771,0,10.449-4.678,10.449-10.449V89.753c0-5.771-4.678-10.449-10.449-10.449
		s-10.449,4.678-10.449,10.449v39.795C203.581,135.317,208.26,139.995,214.03,139.995z"/>
	<path style="fill:#231F20;" d="M214.03,63.63c5.771,0,10.449-4.678,10.449-10.449v-0.936c0-5.771-4.678-10.449-10.449-10.449
		s-10.449,4.678-10.449,10.449v0.936C203.581,58.951,208.26,63.63,214.03,63.63z"/>
	<path style="fill:#231F20;" d="M339.766,139.995h35.707c5.771,0,10.449-4.678,10.449-10.449c0-5.771-4.678-10.449-10.449-10.449
		h-25.258V99.853h25.258c5.771,0,10.449-4.678,10.449-10.449s-4.678-10.449-10.449-10.449h-25.258V62.694h25.258
		c5.771,0,10.449-4.678,10.449-10.449s-4.678-10.449-10.449-10.449h-35.707c-5.771,0-10.449,4.678-10.449,10.449v77.302
		C329.317,135.317,333.995,139.995,339.766,139.995z"/>
	<path style="fill:#231F20;" d="M245.377,94.386v0.003v35.158c0,5.771,4.678,10.449,10.449,10.449
		c5.771,0,10.449-4.678,10.449-10.449v-15.458l35.587,24.109c1.796,1.217,3.834,1.799,5.851,1.799c3.35,0,6.64-1.608,8.66-4.589
		c3.237-4.778,1.987-11.275-2.79-14.512l-25.661-17.384c11.864-3.713,20.497-14.805,20.497-27.877v-4.637
		c0-16.103-13.1-29.203-29.203-29.203h-23.39c-5.771,0-10.449,4.678-10.449,10.449v42.103
		C245.377,94.361,245.377,94.373,245.377,94.386z M287.521,70.999v4.637c0,4.579-3.725,8.305-8.305,8.305h-12.941V62.694h12.941
		C283.795,62.694,287.521,66.419,287.521,70.999z"/>
	<path style="fill:#231F20;" d="M256,286.292c-27.655,0-50.155,22.5-50.155,50.155c0,27.655,22.5,50.155,50.155,50.155
		s50.155-22.5,50.155-50.155C306.155,308.791,283.655,286.292,256,286.292z M256,365.704c-16.132,0-29.257-13.125-29.257-29.257
		c0-16.132,13.125-29.257,29.257-29.257s29.257,13.125,29.257,29.257C285.257,352.579,272.132,365.704,256,365.704z"/>
	<path style="fill:#231F20;" d="M470.204,119.097h-31.347V10.449C438.857,4.678,434.179,0,428.408,0H83.592
		c-5.771,0-10.449,4.678-10.449,10.449v108.648H41.796c-5.771,0-10.449,4.678-10.449,10.449v41.796
		c0,5.771,4.678,10.449,10.449,10.449h31.347v319.76c0,5.771,4.678,10.449,10.449,10.449h344.816
		c5.771,0,10.449-4.678,10.449-10.449v-319.76h31.347c5.771,0,10.449-4.678,10.449-10.449v-41.796
		C480.653,123.777,475.975,119.097,470.204,119.097z M94.041,181.791h323.918V202.7H94.041V181.791z M94.041,223.598h323.918
		v225.698H94.041V223.598z M94.041,20.898h323.918v139.995H94.041V20.898z M52.245,139.995h20.898v20.898H52.245V139.995z
		 M417.959,491.102H94.041v-20.908h323.918V491.102z M459.755,160.893h-20.898v-20.898h20.898V160.893z"/>
	<path style="fill:#231F20;" d="M379.298,305.1h-31.347v-50.155c0-5.771-4.678-10.449-10.449-10.449h-204.8
		c-5.771,0-10.449,4.678-10.449,10.449v41.796c0,5.771,4.678,10.449,10.449,10.449h31.347v58.514h-31.347
		c-5.771,0-10.449,4.678-10.449,10.449v41.796c0,5.771,4.678,10.449,10.449,10.449h204.8c5.771,0,10.449-4.678,10.449-10.449
		v-50.155h31.347c5.771,0,10.449-4.678,10.449-10.449v-41.796C389.747,309.778,385.069,305.1,379.298,305.1z M143.151,286.292
		v-20.898h20.898v20.898H143.151z M143.151,386.602h20.898V407.5h-20.898V386.602z M327.053,407.5H184.947v-31.347v-79.412v-31.347
		h142.106v50.155v41.796V407.5z M368.849,346.896h-20.898v-20.898h20.898V346.896z"/>
</g>
<g>
</g>
<g>
</g>
<g>
</g>
<g>
</g>
<g>
</g>
<g>
</g>
<g>
</g>
<g>
</g>
<g>
</g>
<g>
</g>
<g>
</g>
<g>
</g>
<g>
</g>
<g>
</g>
<g>
</g>
</svg>
