<?xml version="1.0" encoding="iso-8859-1"?>
<!-- Generator: Adobe Illustrator 19.0.0, SVG Export Plug-In . SVG Version: 6.00 Build 0)  -->
<svg version="1.1" id="Layer_1" xmlns="http://www.w3.org/2000/svg" xmlns:xlink="http://www.w3.org/1999/xlink" x="0px" y="0px"
	 viewBox="0 0 512 512" style="enable-background:new 0 0 512 512;" xml:space="preserve">
<path style="fill:#FB5858;" d="M381.769,109.411H130.231c-41.937,0-76.056,33.923-76.056,75.619v89.029
	c0,8.8,7.134,15.934,15.934,15.934h371.784c8.8,0,15.934-7.134,15.934-15.934v-89.03
	C457.826,143.333,423.708,109.411,381.769,109.411z"/>
<g>
	<path style="fill:#FF835D;" d="M130.231,109.411c-41.937,0-76.056,33.923-76.056,75.619v89.029c0,8.8,7.134,15.934,15.934,15.934
		H256V109.411H130.231z"/>
	<circle style="fill:#FF835D;" cx="348.415" cy="207.137" r="16.749"/>
</g>
<circle style="fill:#FB5858;" cx="163.585" cy="207.137" r="16.749"/>
<path style="fill:#C34A48;" d="M456.764,293.178c0-8.8-7.134-15.934-15.934-15.934H70.108c-8.8,0-15.934,7.134-15.934,15.934v69.046
	c0,8.8,7.134,15.934,15.934,15.934H440.83c8.8,0,15.934-7.134,15.934-15.934V293.178z"/>
<path style="fill:#FB5858;" d="M256,277.245H70.108c-8.8,0-15.934,7.134-15.934,15.934v69.046c0,8.8,7.134,15.934,15.934,15.934H256
	V277.245z"/>
<path style="fill:#C34A48;" d="M63.512,222.008H30.56C13.998,222.008,0,235.435,0,251.996v134.712c0,8.8,7.658,15.881,16.457,15.881
	h61.156c8.801,0,15.863-7.081,15.863-15.881V251.996C93.477,235.435,80.074,222.008,63.512,222.008z"/>
<g>
	<path style="fill:#FB5858;" d="M46.739,222.008H30.56C13.998,222.008,0,235.435,0,251.996v134.712
		c0,8.8,7.658,15.881,16.457,15.881h30.281V222.008z"/>
	<path style="fill:#FB5858;" d="M482.035,222.008h-32.953c-16.561,0-30.56,13.427-30.56,29.988v134.712
		c0,8.8,7.658,15.881,16.457,15.881h61.156c8.8,0,15.863-7.081,15.863-15.881V251.996C512,235.435,498.597,222.008,482.035,222.008z
		"/>
</g>
<path style="fill:#FF835D;" d="M465.261,222.008h-16.179c-16.561,0-30.56,13.427-30.56,29.988v134.712
	c0,8.8,7.658,15.881,16.457,15.881h30.281V222.008z"/>
<g>
</g>
<g>
</g>
<g>
</g>
<g>
</g>
<g>
</g>
<g>
</g>
<g>
</g>
<g>
</g>
<g>
</g>
<g>
</g>
<g>
</g>
<g>
</g>
<g>
</g>
<g>
</g>
<g>
</g>
</svg>
